<svg width="150" height="150" viewBox="0 0 150 150" fill="none" xmlns="http://www.w3.org/2000/svg">
<path d="M31.25 112.5H18.75C15.4348 112.5 12.2554 111.183 9.91117 108.839C7.56696 106.495 6.25 103.315 6.25 100V50C6.25 46.6848 7.56696 43.5054 9.91117 41.1612C12.2554 38.817 15.4348 37.5 18.75 37.5H38.6875M93.75 37.5H106.25C109.565 37.5 112.745 38.817 115.089 41.1612C117.433 43.5054 118.75 46.6848 118.75 50V100C118.75 103.315 117.433 106.495 115.089 108.839C112.745 111.183 109.565 112.5 106.25 112.5H86.3125" stroke="#121F48" stroke-width="10" stroke-linecap="round" stroke-linejoin="round"/>
<path d="M143.75 81.25V68.75" stroke="#121F48" stroke-width="10" stroke-linecap="round" stroke-linejoin="round"/>
<path d="M68.75 37.5L43.75 75H81.25L56.25 112.5" stroke="#121F48" stroke-width="10" stroke-linecap="round" stroke-linejoin="round"/>
</svg>
