<svg width="150" height="151" viewBox="0 0 150 151" fill="none" xmlns="http://www.w3.org/2000/svg">
<path d="M75 138.296C109.518 138.296 137.5 110.314 137.5 75.7959C137.5 41.2781 109.518 13.2959 75 13.2959C40.4822 13.2959 12.5 41.2781 12.5 75.7959C12.5 110.314 40.4822 138.296 75 138.296Z" stroke="#121F48" stroke-width="10" stroke-linecap="round" stroke-linejoin="round"/>
<path d="M75 100.796C88.8071 100.796 100 89.603 100 75.7959C100 61.9888 88.8071 50.7959 75 50.7959C61.1929 50.7959 50 61.9888 50 75.7959C50 89.603 61.1929 100.796 75 100.796Z" stroke="#121F48" stroke-width="10" stroke-linecap="round" stroke-linejoin="round"/>
<path d="M30.8125 31.6084L57.3125 58.1084" stroke="#121F48" stroke-width="10" stroke-linecap="round" stroke-linejoin="round"/>
<path d="M92.6875 93.4834L119.188 119.983" stroke="#121F48" stroke-width="10" stroke-linecap="round" stroke-linejoin="round"/>
<path d="M92.6875 58.1084L119.188 31.6084" stroke="#121F48" stroke-width="10" stroke-linecap="round" stroke-linejoin="round"/>
<path d="M92.6875 58.1084L114.75 36.0459" stroke="#121F48" stroke-width="10" stroke-linecap="round" stroke-linejoin="round"/>
<path d="M30.8125 119.983L57.3125 93.4834" stroke="#121F48" stroke-width="10" stroke-linecap="round" stroke-linejoin="round"/>
</svg>
