<svg width="150" height="150" viewBox="0 0 150 150" fill="none" xmlns="http://www.w3.org/2000/svg">
<path d="M131.25 79.9375C130.267 90.5763 126.274 100.715 119.739 109.167C113.204 117.62 104.397 124.036 94.3483 127.666C84.2996 131.296 73.425 131.988 62.997 129.663C52.569 127.338 43.0188 122.091 35.464 114.536C27.9092 106.981 22.6622 97.4311 20.337 87.0031C18.0118 76.5751 18.7046 65.7005 22.3342 55.6519C25.9639 45.6032 32.3803 36.796 40.8327 30.261C49.2851 23.7259 59.4238 19.7332 70.0626 18.75C63.8339 27.1767 60.8367 37.5591 61.6159 48.0088C62.3952 58.4586 66.8993 68.2816 74.3089 75.6912C81.7185 83.1009 91.5415 87.6049 101.991 88.3842C112.441 89.1634 122.823 86.1662 131.25 79.9375V79.9375Z" stroke="#121F48" stroke-width="10" stroke-linecap="round" stroke-linejoin="round"/>
</svg>
