<svg width="150" height="150" viewBox="0 0 150 150" fill="none" xmlns="http://www.w3.org/2000/svg">
<path d="M106.25 18.7499C107.892 17.1084 109.84 15.8063 111.985 14.9179C114.13 14.0295 116.429 13.5723 118.75 13.5723C121.071 13.5723 123.37 14.0295 125.515 14.9179C127.66 15.8063 129.608 17.1084 131.25 18.7499C132.892 20.3915 134.194 22.3402 135.082 24.485C135.97 26.6297 136.428 28.9285 136.428 31.2499C136.428 33.5714 135.97 35.8701 135.082 38.0149C134.194 40.1596 132.892 42.1084 131.25 43.7499L46.875 128.125L12.5 137.5L21.875 103.125L106.25 18.7499Z" stroke="#121F48" stroke-width="10" stroke-linecap="round" stroke-linejoin="round"/>
</svg>
