<svg width="150" height="150" viewBox="0 0 150 150" fill="none" xmlns="http://www.w3.org/2000/svg">
<path d="M75 93.75C85.3553 93.75 93.75 85.3553 93.75 75C93.75 64.6447 85.3553 56.25 75 56.25C64.6447 56.25 56.25 64.6447 56.25 75C56.25 85.3553 64.6447 93.75 75 93.75Z" stroke="#121F48" stroke-width="10" stroke-linecap="round" stroke-linejoin="round"/>
<path d="M121.25 93.75C120.418 95.6351 120.17 97.7262 120.537 99.7537C120.905 101.781 121.872 103.652 123.312 105.125L123.688 105.5C124.85 106.661 125.772 108.04 126.401 109.557C127.03 111.074 127.354 112.701 127.354 114.344C127.354 115.986 127.03 117.613 126.401 119.131C125.772 120.648 124.85 122.027 123.688 123.187C122.527 124.35 121.148 125.272 119.631 125.901C118.113 126.53 116.486 126.854 114.844 126.854C113.201 126.854 111.574 126.53 110.057 125.901C108.54 125.272 107.161 124.35 106 123.187L105.625 122.812C104.152 121.372 102.281 120.405 100.254 120.037C98.2262 119.67 96.1351 119.918 94.25 120.75C92.4014 121.542 90.8249 122.858 89.7144 124.535C88.6039 126.211 88.008 128.176 88 130.187V131.25C88 134.565 86.683 137.745 84.3388 140.089C81.9946 142.433 78.8152 143.75 75.5 143.75C72.1848 143.75 69.0054 142.433 66.6612 140.089C64.317 137.745 63 134.565 63 131.25V130.687C62.9516 128.619 62.282 126.612 61.0782 124.929C59.8744 123.246 58.1921 121.964 56.25 121.25C54.3649 120.418 52.2738 120.17 50.2463 120.537C48.2189 120.905 46.348 121.872 44.875 123.312L44.5 123.688C43.3391 124.85 41.9605 125.772 40.443 126.401C38.9255 127.03 37.2989 127.354 35.6562 127.354C34.0136 127.354 32.387 127.03 30.8695 126.401C29.352 125.772 27.9734 124.85 26.8125 123.688C25.6503 122.527 24.7283 121.148 24.0993 119.631C23.4702 118.113 23.1464 116.486 23.1464 114.844C23.1464 113.201 23.4702 111.574 24.0993 110.057C24.7283 108.54 25.6503 107.161 26.8125 106L27.1875 105.625C28.6284 104.152 29.5949 102.281 29.9625 100.254C30.3301 98.2262 30.082 96.1351 29.25 94.25C28.4577 92.4014 27.1422 90.8249 25.4654 89.7144C23.7886 88.6039 21.8237 88.008 19.8125 88H18.75C15.4348 88 12.2554 86.683 9.91117 84.3388C7.56696 81.9946 6.25 78.8152 6.25 75.5C6.25 72.1848 7.56696 69.0054 9.91117 66.6612C12.2554 64.317 15.4348 63 18.75 63H19.3125C21.3812 62.9516 23.3875 62.282 25.0706 61.0782C26.7537 59.8744 28.0357 58.1921 28.75 56.25C29.582 54.3649 29.8301 52.2738 29.4625 50.2463C29.0949 48.2189 28.1284 46.348 26.6875 44.875L26.3125 44.5C25.1503 43.3391 24.2283 41.9605 23.5993 40.443C22.9702 38.9255 22.6464 37.2989 22.6464 35.6562C22.6464 34.0136 22.9702 32.387 23.5993 30.8695C24.2283 29.352 25.1503 27.9734 26.3125 26.8125C27.4734 25.6503 28.852 24.7283 30.3695 24.0993C31.887 23.4702 33.5136 23.1464 35.1562 23.1464C36.7989 23.1464 38.4255 23.4702 39.943 24.0993C41.4605 24.7283 42.8391 25.6503 44 26.8125L44.375 27.1875C45.848 28.6284 47.7188 29.5949 49.7463 29.9625C51.7738 30.3301 53.8649 30.082 55.75 29.25H56.25C58.0986 28.4577 59.6751 27.1422 60.7856 25.4654C61.8961 23.7886 62.492 21.8237 62.5 19.8125V18.75C62.5 15.4348 63.817 12.2554 66.1612 9.91117C68.5054 7.56696 71.6848 6.25 75 6.25C78.3152 6.25 81.4946 7.56696 83.8388 9.91117C86.183 12.2554 87.5 15.4348 87.5 18.75V19.3125C87.508 21.3237 88.1039 23.2886 89.2144 24.9654C90.3249 26.6422 91.9014 27.9577 93.75 28.75C95.6351 29.582 97.7262 29.8301 99.7537 29.4625C101.781 29.0949 103.652 28.1284 105.125 26.6875L105.5 26.3125C106.661 25.1503 108.04 24.2283 109.557 23.5993C111.074 22.9702 112.701 22.6464 114.344 22.6464C115.986 22.6464 117.613 22.9702 119.131 23.5993C120.648 24.2283 122.027 25.1503 123.187 26.3125C124.35 27.4734 125.272 28.852 125.901 30.3695C126.53 31.887 126.854 33.5136 126.854 35.1562C126.854 36.7989 126.53 38.4255 125.901 39.943C125.272 41.4605 124.35 42.8391 123.187 44L122.812 44.375C121.372 45.848 120.405 47.7188 120.037 49.7463C119.67 51.7738 119.918 53.8649 120.75 55.75V56.25C121.542 58.0986 122.858 59.6751 124.535 60.7856C126.211 61.8961 128.176 62.492 130.187 62.5H131.25C134.565 62.5 137.745 63.817 140.089 66.1612C142.433 68.5054 143.75 71.6848 143.75 75C143.75 78.3152 142.433 81.4946 140.089 83.8388C137.745 86.183 134.565 87.5 131.25 87.5H130.687C128.676 87.508 126.711 88.1039 125.035 89.2144C123.358 90.3249 122.042 91.9014 121.25 93.75V93.75Z" stroke="#121F48" stroke-width="10" stroke-linecap="round" stroke-linejoin="round"/>
</svg>
