<svg width="150" height="150" viewBox="0 0 150 150" fill="none" xmlns="http://www.w3.org/2000/svg">
<path d="M37.5 18.75V93.75" stroke="#121F48" stroke-width="10" stroke-linecap="round" stroke-linejoin="round"/>
<path d="M112.5 56.25C122.855 56.25 131.25 47.8553 131.25 37.5C131.25 27.1447 122.855 18.75 112.5 18.75C102.145 18.75 93.75 27.1447 93.75 37.5C93.75 47.8553 102.145 56.25 112.5 56.25Z" stroke="#121F48" stroke-width="10" stroke-linecap="round" stroke-linejoin="round"/>
<path d="M37.5 131.25C47.8553 131.25 56.25 122.855 56.25 112.5C56.25 102.145 47.8553 93.75 37.5 93.75C27.1447 93.75 18.75 102.145 18.75 112.5C18.75 122.855 27.1447 131.25 37.5 131.25Z" stroke="#121F48" stroke-width="10" stroke-linecap="round" stroke-linejoin="round"/>
<path d="M112.5 56.25C112.5 71.1684 106.574 85.4758 96.0248 96.0248C85.4758 106.574 71.1684 112.5 56.25 112.5" stroke="#121F48" stroke-width="10" stroke-linecap="round" stroke-linejoin="round"/>
</svg>
